<?xml version="1.0" encoding="utf-8"?>
<!-- Generator: Adobe Illustrator 19.0.1, SVG Export Plug-In . SVG Version: 6.00 Build 0)  -->
<svg version="1.1" id="Слой_1" xmlns="http://www.w3.org/2000/svg" xmlns:xlink="http://www.w3.org/1999/xlink" x="0px" y="0px"
	 viewBox="0 0 117.4 205.8" style="enable-background:new 0 0 117.4 205.8;" xml:space="preserve">
<style type="text/css">
	.st0{fill:none;stroke:#000000;stroke-width:8;stroke-miterlimit:10;}
	.st1{fill:none;stroke:#000000;stroke-width:9;stroke-miterlimit:10;}
	.st2{fill:none;stroke:#000000;stroke-width:7;stroke-miterlimit:10;}
</style>
<g>
	<path class="st0" d="M-543,32.4"/>
	<path class="st0" d="M-502.1,139c3.1-2.7,27.5-23.9,28.2-49.7c0.8-27.7-33.6-59.5-74-68.3"/>
	<path class="st0" d="M-552.4,154.6c6.3,1.2,11,1,12.2,0.9c1.8-0.1,7.4-0.5,15.2-3.2"/>
	<path class="st0" d="M-606.5,89.2c0.3,2.6,4.1,36.6,27.2,53.5"/>
	<line class="st0" x1="-544.9" y1="88.9" x2="-544.9" y2="22.9"/>
	<line class="st0" x1="-539.9" y1="93.9" x2="-608.9" y2="93.9"/>
	<path class="st0" d="M-559.2,66.1"/>
	<circle class="st0" cx="-566.2" cy="149" r="14.6"/>
	<circle class="st0" cx="-511.5" cy="149.3" r="13.9"/>
	<path class="st0" d="M-369.2,92.8c0-31.1,24.2-56.2,54-56.2c29.8,0,54,25.2,54,56.2"/>
	<path class="st0" d="M-315.2,149"/>
	<path class="st0" d="M-357.2,72.6"/>
	<path class="st0" d="M-261.2,84.6v71.3c0,6.6-5.4,12-12,12h-84c-6.6,0-12-5.4-12-12V84.6"/>
	<path class="st0" d="M-252.5,213.2h-119.3c-6.6,0-12-5.4-12-12v-8c0-6.6,5.4-12,12-12h119.3c6.6,0,12,5.4,12,12v8
		C-240.5,207.8-245.9,213.2-252.5,213.2z"/>
</g>
<path class="st1" d="M-323.2,85.1c0-4.3,0-8.6,0-13c0-0.5,0.1-3.2,2.2-5.3c1.4-1.4,3.2-2.2,5.3-2.2h0c4.1,0,7.5,3.4,7.5,7.5
	c0,4.4,0,8.9,0,13.3"/>
<path class="st1" d="M-308.2,97.3c0,10.2,0,20.4,0,30.6c0,0.5-0.1,3.2-2.2,5.3c-1.4,1.4-3.2,2.2-5.3,2.2h0c-4.1,0-7.5-3.4-7.5-7.5
	c0-10.1,0-20.2,0-30.3"/>
<path class="st1" d="M-324.5,97.6c-5.3,0-10.6,0-15.9,0c-0.4,0-2.3,0-3.9-1.6c-1-1-1.6-2.4-1.6-3.9v0c0-3,2.5-5.5,5.5-5.5
	c4.6-0.1,9.9-0.1,15.8-0.2"/>
<path class="st1" d="M-306.5,86.4c5.2,0,10.9,0.1,17.1,0.2c0.4,0,2.3,0,3.9,1.6c1,1,1.6,2.4,1.6,3.9v0c0,3-2.5,5.5-5.5,5.5
	c-5.7,0-11.4,0-17.1,0"/>
<path d="M-39,127.2c-0.2,1.3-0.2,2.6-0.5,3.9c-1.3,5.7-4.6,9.8-9.5,12.9c-1.8,1.2-3.8,2-5.9,2.6c-0.2,0.1-0.5,0.3-0.6,0.5
	c-2.3,4.6-6,7.6-10.8,9.3c-0.5,0.2-1,0.4-1.5,0.5c-0.4,0.1-0.5,0.3-0.5,0.7c0,1.9,0,3.8-0.1,5.7c-0.3,5.9-1.8,11.4-4.6,16.5
	c-3.3,6.1-7.9,11-14,14.5c-4.1,2.4-8.5,3.8-13.2,4.4c-3.8,0.5-7.6,0.3-11.3,0.3c-0.4,0-0.7,0.1-1,0.5c-2.3,2.7-5,4.7-8.4,5.7
	c-4.9,1.4-9.4,0.4-13.5-2.5c-1.3-0.9-2.4-2.2-3.5-3.3c-0.2-0.2-0.5-0.4-0.8-0.4c-3,0-6,0-9.1-0.1c-5.2-0.2-10.2-1.7-14.8-4.2
	c-10-5.6-16-14.2-18.5-25.2c-0.8-3.5-0.9-7.2-0.8-10.8c0-0.5,0.2-1.1-0.1-1.5c-0.2-0.3-0.9-0.4-1.4-0.5c-4.2-1.4-7.6-3.7-10.1-7.4
	c-0.5-0.7-0.9-1.4-1.2-2.1c-0.2-0.4-0.4-0.6-0.9-0.8c-5.6-2-10.1-5.4-12.9-10.8c-1.5-2.8-2.1-5.9-2-9.1c0.1-3.2,0.2-6.5,0.5-9.7
	c0.7-7.9,2.4-15.6,5.5-22.9c2.3-5.6,5.4-10.8,9.2-15.5c4.4-5.4,9.7-9.9,15.7-13.5c5.9-3.5,12.3-6.1,18.9-8c0.5-0.1,0.6-0.3,0.7-0.8
	c1.5-9.5,5.8-17.4,13.9-22.8c4-2.7,8.4-4.3,13-5.2c3.9-0.7,7.8-1,11.7-0.7c7.8,0.6,14.8,3.1,20.9,8.2c5.3,4.5,8.7,10.2,10.4,16.9
	c0.3,1.3,0.5,2.5,0.7,3.8c0.1,0.4,0.2,0.5,0.5,0.6c5.2,1.5,10.3,3.4,15.2,5.8c7.5,3.8,14,8.8,19.3,15.3c4.5,5.5,7.9,11.6,10.4,18.3
	c2,5.6,3.3,11.3,4.1,17.2c0.5,4,0.8,8.1,0.8,12.2c0,0.2,0,0.5,0.1,0.7C-39,126.6-39,126.9-39,127.2z M-125.6,102.3
	c-5.5-0.2-11.3-0.4-17-0.7c-4.6-0.2-9.2-0.2-13.8,0.1c-2.8,0.2-5.6,0.6-8.3,1.4c-3.9,1.2-6.8,3.5-8.5,7.3c-1,2.3-1.4,4.6-1.5,7
	c-0.1,3.1-0.1,6.3-0.1,9.4c0,2.3-1.4,3.7-3.6,3.9c-1.6,0.1-3.1,0.5-4.6,1c-3.2,1.2-5.5,3.3-5.9,7c-0.3,2.3-0.1,4.5,1.3,6.4
	c2.3,3.2,5.6,5,9.5,5.6c2,0.3,3.3,1.6,3.4,3.6c0,2.1,0,4.2,0,6.2c0,2.4,0.2,4.8,0.7,7.2c1.6,7.7,5.4,14.1,11.9,18.7
	c4.8,3.5,10.2,5.2,16.1,5.3c2.9,0,5.8,0,8.8,0c1.6,0,2.7,0.6,3.6,1.9c0.5,0.8,1.2,1.6,1.9,2.2c2.5,2.2,5.3,3.2,8.6,2.5
	c2.8-0.6,5-2.2,6.6-4.6c0.9-1.4,2.2-2,3.9-2c3.6,0,7.1,0.1,10.7-0.1c4.7-0.3,9-1.7,12.9-4.3c9-5.9,13.2-14.5,13.7-25
	c0.1-2.7,0-5.4,0-8c0-1.9,1.3-3.3,3.2-3.6c2.3-0.3,4.4-1.1,6.3-2.4c2-1.4,3.7-3.2,4.5-5.6c0.5-1.4,0.3-2.8,0.3-4.2
	c-0.1-2.8-1.4-5-4-6.3c-1.9-0.9-3.8-1.4-5.9-1.5c-2.2-0.1-3.7-1.6-3.7-3.8c0-2.2,0-4.4,0-6.6c0-2.4-0.2-4.7-0.7-7
	c-1.2-5.1-4.1-8.5-9.1-10.1c-3.4-1.1-6.9-1.5-10.4-1.7c-6.2-0.3-12.4,0.2-18.6,0.3C-117.5,102-121.4,102.1-125.6,102.3z M-54,138.5
	c0.5-0.3,1-0.5,1.5-0.8c4.2-2.5,6.5-6.2,6.3-11.1c-0.1-2.7-0.2-5.4-0.3-8.1c-0.3-4.9-1.1-9.7-2.4-14.5c-2.2-8.4-6-16.1-11.8-22.6
	c-6-6.8-13.4-11.5-21.7-14.9c-7.2-3-14.8-4.7-22.5-5.8c-4.7-0.7-9.4-1-14.1-1.2c-6.5-0.2-13-0.1-19.5,0.5c-5,0.5-10,1.2-14.9,2.3
	c-8.5,2-16.6,4.9-24,9.7c-6.2,4-11.5,9-15.6,15.2c-3.6,5.4-6.1,11.4-7.7,17.6c-1.8,6.8-2.5,13.8-2.5,20.8c0,1,0,2.1,0.1,3.1
	c0.4,3.2,2.1,5.8,4.6,7.8c0.8,0.6,1.7,1.2,2.6,1.8c0.5-3.8,2.1-6.9,4.7-9.5c2.6-2.6,5.7-4.2,9.4-4.4c0-1.2,0-2.3,0-3.5
	c0-2.4,0.1-4.9,0.5-7.3c0.6-3.3,1.6-6.4,3.4-9.2c2.7-4.2,6.6-6.7,11.2-8.3c4.4-1.5,9-2,13.7-2c6.5,0.1,13,0.3,19.4,0.6
	c7.7,0.3,15.4,0.1,23.2-0.3c5.7-0.3,11.3-0.6,17-0.2c3.7,0.2,7.4,0.7,11,1.9c3.8,1.3,7.1,3.3,9.7,6.3c3.3,3.9,4.7,8.6,5.1,13.5
	c0.2,2.5,0.2,5.1,0.2,7.6c0,0.2,0,0.4,0,0.5C-59.2,125.3-55.3,130.6-54,138.5z M-97,54.7C-97,54.7-97,54.6-97,54.7
	c0-0.2,0-0.3,0-0.4c-1.6-6.4-5-11.5-10.5-15.2c-3.7-2.5-7.8-3.9-12.2-4.5c-4.7-0.6-9.3-0.5-13.8,0.7c-9.1,2.4-15.4,7.9-18.4,17
	c-0.3,0.8-0.4,1.6-0.7,2.4C-134,51.3-115.5,51.3-97,54.7z"/>
<path d="M-121.2,141.4c0-9.8,8.1-17.8,17.9-17.8c9.8,0,17.9,8.1,17.8,17.9c-0.1,9.8-8.1,17.8-17.9,17.8
	C-113.2,159.3-121.3,151.2-121.2,141.4z M-103.4,130.8c-6,0-10.7,4.7-10.7,10.7c0,6,4.7,10.7,10.7,10.7c6,0,10.7-4.8,10.7-10.8
	C-92.7,135.5-97.4,130.7-103.4,130.8z"/>
<path d="M-146.2,159.3c-9.8,0-17.9-8.1-17.9-17.9c0-9.8,8.1-17.9,17.9-17.9c9.8,0,17.8,8.1,17.8,17.9
	C-128.4,151.3-136.5,159.4-146.2,159.3z M-135.5,141.5c0-6-4.7-10.7-10.7-10.7c-6,0-10.7,4.7-10.7,10.7c0,6,4.7,10.7,10.7,10.7
	C-140.3,152.2-135.5,147.5-135.5,141.5z"/>
<path d="M115.9,19.2c1.4,0.9,2.4,2,1.7,3.7c-0.6,1.7-2,1.9-3.6,1.9c-36.7,0-73.5,0-110.2,0c-2.7,0-4.2-1.2-3.7-3.1
	c0.2-0.9,1.1-1.6,1.7-2.5C39.8,19.2,77.8,19.2,115.9,19.2z"/>
<path d="M78.2,108.7c3.5,2.8,6.9,5.5,10.1,8.3c10,9.1,17.9,19.6,21.8,32.8c1.4,4.7,2,9.4,2,14.3c0,6.5,0,13.1,0,19.6
	c0,2.5-1,3.5-3.5,3.5c-33.1,0-66.1,0-99.2,0c-2.8,0-3.7-0.9-3.7-3.6c0-7.6-0.1-15.3,0.2-22.9c0.5-11.6,5-21.8,11.9-31
	c5.6-7.6,12.4-13.9,20-19.4c0.6-0.4,1.2-0.9,1.8-1.3c-3.3-2.7-6.7-5.3-9.8-8.1c-9.1-8.2-16.4-17.7-20.6-29.3
	c-2.2-6.2-3.2-12.5-3.1-19c0-6,0-12,0-18c0-3.3,0.8-4.1,4-4.1c32.7,0,65.3,0,98,0c3.1,0,3.9,0.8,3.9,3.9c0,5.8-0.1,11.6,0,17.3
	c0.3,14.4-4.6,26.9-13.4,38.1c-5.4,6.9-11.8,12.7-18.9,17.8C79.3,107.9,78.8,108.3,78.2,108.7z M106.5,181.6c0-5.6-0.1-10.9,0-16.3
	c0.1-9.8-2.6-18.9-7.7-27.2c-6.7-11-16-19.4-26.6-26.4c-2.9-1.9-2.9-3.9,0-5.9c8-5.2,15.2-11.2,21.2-18.6
	c6.9-8.4,11.8-17.9,12.6-28.9c0.5-7.3,0.2-14.7,0.3-22c0-0.1-0.1-0.2-0.2-0.3c-31.6,0-63.2,0-94.9,0c0,0.7,0,1.3,0,2
	c0,4.7,0,9.3,0,14c-0.1,10.5,2.8,20,8.4,28.7c6.7,10.3,15.6,18.3,25.8,25c3,2,3,3.9,0,5.9c-6.2,4.1-12,8.6-17.2,14
	c-8.1,8.5-14.2,18.2-16.3,30c-1.5,8.4-0.7,17-0.7,25.5c0,0.1,0.1,0.2,0.3,0.4c3.5,0,7.1,0,10.7,0c1.2,0,2-0.3,2.9-1.2
	c9.2-9.3,18.5-18.6,27.9-27.8c2.1-2,3.6-4,3-7.1c0-0.2,0-0.5,0-0.7c0.3-1.5,1.5-2.5,2.9-2.5c1.5,0.1,2.5,1.2,2.6,2.7
	c0.1,1-0.1,2.1,0.1,3.1c0.1,0.7,0.3,1.5,0.8,2c10.2,10.2,20.3,20.4,30.5,30.6c0.4,0.4,1,0.7,1.5,0.7
	C98.4,181.7,102.3,181.6,106.5,181.6z M32.4,181.5c17.7,0,35.4,0,52.8,0c-8.8-8.8-17.6-17.6-26.4-26.4
	C50.1,163.8,41.3,172.6,32.4,181.5z"/>
<path d="M58.8,192.8c18.3,0,36.6,0,54.9,0c0.5,0,1.1-0.1,1.6,0c1.5,0.3,2.4,1.2,2.4,2.7c0,1.5-0.9,2.5-2.4,2.8c-0.6,0.1-1.2,0-1.7,0
	c-36.5,0-73,0-109.5,0c-0.3,0-0.6,0-0.9,0c-2.1,0-3.3-1.1-3.2-2.9c0-1.7,1.2-2.7,3.2-2.7c3.4,0,6.8,0,10.1,0
	C28.5,192.8,43.6,192.8,58.8,192.8C58.8,192.8,58.8,192.8,58.8,192.8z"/>
<path d="M59.7,69.5c8.8,0,17.6,0,26.4,0c1.4,0,2.7,0.1,3.5,1.5c0.8,1.4,0.1,2.6-0.6,3.7c-3.9,6.3-9.2,11.3-15.1,15.7
	c-4.3,3.2-8.7,6.2-13.1,9.4c-1.2,0.8-2.4,1-3.6,0.2c-8.1-5.8-16.3-11.5-22.7-19.3c-1.6-2-3-4.2-4.5-6.3c-0.8-1.1-1.1-2.2-0.4-3.4
	c0.7-1.2,1.9-1.4,3.2-1.4C41.8,69.5,50.8,69.5,59.7,69.5z M58.9,94.2c8.1-5.7,16.4-11,22.8-19c-14.9,0-29.4,0-44.2,0
	C43.4,83.2,51.1,88.6,58.9,94.2z"/>
<path d="M61.7,114.5c0,0.9,0,1.9,0,2.8c-0.1,1.6-1.1,2.7-2.6,2.8c-1.4,0.1-2.8-0.9-2.9-2.4c-0.1-2.1-0.1-4.3,0-6.4
	c0.1-1.5,1.5-2.5,3-2.3c1.5,0.2,2.4,1.1,2.5,2.6C61.7,112.5,61.6,113.5,61.7,114.5C61.7,114.5,61.7,114.5,61.7,114.5z"/>
<path d="M61.7,131.2c0,1,0,2,0,3c-0.1,1.5-1.2,2.6-2.7,2.7c-1.4,0-2.8-1-2.8-2.5c-0.1-2-0.1-4.1,0-6.1c0.1-1.6,1.5-2.7,2.9-2.6
	c1.4,0.1,2.5,1.2,2.6,2.8C61.7,129.3,61.7,130.3,61.7,131.2z"/>
<text transform="matrix(1 0 0 1 -604.3853 473.8956)" style="font-family:'MyriadPro-Regular'; font-size:146px;">P</text>
<text transform="matrix(1 0 0 1 -581.5027 401.8956)" style="font-family:'MyriadPro-Regular'; font-size:146px;">П</text>
<g>
	<ellipse class="st0" cx="88.8" cy="352.9" rx="48" ry="49"/>
	<ellipse class="st0" cx="36.4" cy="280.6" rx="22.3" ry="23.3"/>
	<path class="st0" d="M1.1,239.9l232.5,260L1.1,239.9z"/>
</g>
<g>
	<circle class="st0" cx="-311.7" cy="324.4" r="45.5"/>
	<line class="st0" x1="-311.9" y1="369.9" x2="-311.9" y2="444.9"/>
	<line class="st0" x1="-311.9" y1="444.9" x2="-357.2" y2="516.6"/>
	<line class="st0" x1="-311.9" y1="444.9" x2="-270.9" y2="516.6"/>
	<line class="st0" x1="-311.7" y1="377.2" x2="-270.9" y2="419.9"/>
	<line class="st0" x1="-311.7" y1="377.2" x2="-357.2" y2="413.9"/>
</g>
<g>
	<line class="st2" x1="236.6" y1="107.9" x2="236.6" y2="277.9"/>
	<line class="st2" x1="199.1" y1="105.4" x2="268.1" y2="105.4"/>
	<line class="st2" x1="236.6" y1="102.9" x2="236.6" y2="76.9"/>
	<line class="st2" x1="208.1" y1="80.4" x2="258.1" y2="80.4"/>
	<line class="st2" x1="208.1" y1="78.6" x2="233.1" y2="26.9"/>
	<line class="st2" x1="258.1" y1="79.9" x2="233.1" y2="26.9"/>
</g>
<g>
	<circle class="st0" cx="-107.7" cy="322.4" r="45.5"/>
	<line class="st0" x1="-107.9" y1="367.9" x2="-107.9" y2="442.9"/>
	<line class="st0" x1="-107.9" y1="442.9" x2="-153.2" y2="514.6"/>
	<line class="st0" x1="-107.9" y1="442.9" x2="-66.9" y2="514.6"/>
	<line class="st0" x1="-107.7" y1="377.2" x2="-44.2" y2="372.2"/>
	<line class="st0" x1="-107.7" y1="375.2" x2="-171.3" y2="367.9"/>
</g>
<circle class="st0" cx="36.4" cy="490.2" r="45.3"/>
<line class="st0" x1="179.1" y1="151.9" x2="179.1" y2="352.9"/>
</svg>
